<svg 
    xmlns="http://www.w3.org/2000/svg" 
    xmlns:xlink="http://www.w3.org/1999/xlink" 
    width="1000" 
    height="600" 
    stroke="#000000" 
    stroke-linecap="round" 
    stroke-linejoin="round" 
    fill="#fff" 
    fill-rule="evenodd" 
    font-family="arial" 
    font-size="14" 
    text-anchor="middle">
    <defs>
        <path d="M0 0l4 5h-8z" id="A" class="C" stroke="none"/>
        <path id="B" d="M35 0Q2.9321 0 .2456 29.3823"/>
        <path id="C" d="M149.3753.0521Q0 2.8451 0 155"/>
        <path id="D" d="M75 0Q2.8675 0 .1096 69.3764"/>
        <path id="E" d="M69.3764.1096Q0 2.8675 0 75"/>
        <path id="F" d="M29.3823.2456Q0 2.9321 0 35"/>
        <path id="G" d="M109.3756.0706Q0 2.8513 0 115"/>
    </defs>
    <g transform="matrix(0 -1 1 0 364.5 524.5)">
        <path d="M189.3753.0498Q0 3.4278 0 235" class="D E" stroke-width="2" fill="none"/>
        <use transform="matrix(.01230219 1.24993946 -1.24993946 .01230219 193.08085821 -194.99055591)" x="156" xlink:href="#A" class="B" fill="#000000"/>
    </g>
    <g transform="matrix(0 1 -1 0 364.5 109.5)">
        <path d="M130 0Q3.2229 0 .0798 109.3757" class="D E" stroke-width="2" fill="none"/>
        <use transform="matrix(-1.24984407 -.01974322 .01974322 -1.24984407 -1.81637589 229.98565466)" xlink:href="#A" y="92" class="B" fill="#000000"/>
    </g>
    <g transform="translate(114.5 194.5)">
        <use xlink:href="#B" class="D E" stroke-width="2" fill="none"/>
        <use transform="matrix(-1.24849892 -.06124089 .06124089 -1.24849892 -1.71474504 69.95796976)" xlink:href="#A" y="28" class="B" fill="#000000"/>
    </g>
    <g transform="matrix(0 -1 1 0 114.5 364.5)">
        <use xlink:href="#B" class="D E" stroke-width="2" fill="none"/>
        <use transform="matrix(-1.24849892 -.06124089 .06124089 -1.24849892 -1.71474504 69.95796976)" xlink:href="#A" y="28" class="B" fill="#000000"/>
    </g>
    <a xlink:href="#/build1">
        <rect height="30" rx="5" width="100" x="149.5" y="349.5" fill="var(--r-diagram-fill-color)"/>
        <text class="B C F G H" white-space="pre" fill="#000000" stroke="none" font-weight="bold" font-family="arial" font-size="16px">
            <tspan x="199.5" y="370.44">BUILD</tspan>
        </text>
        <rect height="30" rx="5" width="100" x="149.5" y="349.5" fill="var(--r-diagram-fill-color)" fill-opacity="0.0" onmouseover="evt.target.setAttribute('stroke-width', '3');" onmouseout="evt.target.setAttribute('stroke-width','1');"/>
    </a>
    <a xlink:href="#/commit1">
        <g transform="matrix(0 -1 1 0 99.5 329.5)">
            <rect height="30" rx="5" width="100" fill="var(--r-diagram-fill-color)"/>
            <text class="B C F G H" white-space="pre" fill="#000000" stroke="none" font-weight="bold" font-family="arial" font-size="16px">
                <tspan x="50" y="20.94">COMMIT</tspan>
            </text>
            <rect height="30" rx="5" width="100" fill="var(--r-diagram-fill-color)" fill-opacity="0.0" onmouseover="evt.target.setAttribute('stroke-width', '3');" onmouseout="evt.target.setAttribute('stroke-width','1');"/>
        </g>
    </a>
    <g transform="matrix(-1 0 0 -1 284.5 364.5)">
        <use xlink:href="#B" class="D E" stroke-width="2" fill="none"/>
        <use transform="matrix(-1.24849892 -.06124089 .06124089 -1.24849892 -1.71474504 69.95796976)" xlink:href="#A" y="28" class="B" fill="#000000"/>
    </g>
    <a xlink:href="#/test1">
        <g transform="matrix(0 -1 1 0 269.5 329.5)">
            <rect height="30" rx="5" width="65" fill="var(--r-diagram-fill-color)"/>
            <text class="B C F G H" white-space="pre" fill="#000000" stroke="none" font-weight="bold" font-family="arial" font-size="16px">
                <tspan x="32.5" y="20.94">TEST</tspan>
            </text>
            <rect height="30" rx="5" width="65" fill="var(--r-diagram-fill-color)" fill-opacity="0.0" onmouseover="evt.target.setAttribute('stroke-width', '3');" onmouseout="evt.target.setAttribute('stroke-width','1');"/>
        </g>
    </a>
    <g transform="matrix(0 -1 1 0 444.5 484.5)">
        <use xlink:href="#C" class="D E" stroke-width="2" fill="none"/>
        <use transform="matrix(.01288903 1.24993355 -1.24993355 .01288903 153.40176051 -154.99175988)" x="124" xlink:href="#A" class="B" fill="#000000"/>
    </g>
    <g transform="translate(74.5 154.5)">
        <use xlink:href="#D" class="D E" stroke-width="2" fill="none"/>
        <use transform="matrix(-1.24970443 -.02718136 .02718136 -1.24970443 -1.63088163 149.98226607)" xlink:href="#A" y="60" class="B" fill="#000000"/>
    </g>
    <a xlink:href="#/commit2">
        <g transform="matrix(0 -1 1 0 59.5 329.5)">
            <rect height="30" rx="5" width="100" fill="var(--r-diagram-fill-color)"/>
            <text class="B C F G H" white-space="pre" fill="#000000" stroke="none" font-weight="bold" font-family="arial" font-size="16px">
                <tspan x="50" y="20.94">COMMIT</tspan>
            </text>
            <rect height="30" rx="5" width="100" fill="var(--r-diagram-fill-color)" fill-opacity="0.0" onmouseover="evt.target.setAttribute('stroke-width', '3');" onmouseout="evt.target.setAttribute('stroke-width','1');"/>
        </g>
    </a>
    <a xlink:href="#/slfb">
        <rect height="30" rx="5" width="100" x="149.5" y="139.5" fill="var(--r-diagram-fill-color)"/>
        <text class="B C F G H" white-space="pre" fill="#000000" stroke="none" font-weight="bold" font-family="arial" font-size="16px">
            <tspan x="199.5" y="160.44">SLFB</tspan>
        </text>
        <rect height="30" rx="5" width="100" x="149.5" y="139.5" fill="var(--r-diagram-fill-color)" fill-opacity="0.0" onmouseover="evt.target.setAttribute('stroke-width', '3');" onmouseout="evt.target.setAttribute('stroke-width','1');"/>
    </a>
    <a xlink:href="#/code">
        <rect height="30" rx="5" width="80" x="149.5" y="179.5" fill="var(--r-diagram-fill-color)"/>
        <text class="B C F G H" white-space="pre" fill="#000000" stroke="none" font-weight="bold" font-family="arial" font-size="16px">
            <tspan x="189.5" y="200.44">CODE</tspan>
        </text>
        <rect height="30" rx="5" width="80" x="149.5" y="179.5" fill="var(--r-diagram-fill-color)" fill-opacity="0.0" onmouseover="evt.target.setAttribute('stroke-width', '3');" onmouseout="evt.target.setAttribute('stroke-width','1');"/>
    </a>
    <g transform="matrix(-1 0 0 -1 324.5 404.5)">
        <use xlink:href="#D" class="D E" stroke-width="2" fill="none"/>
        <use transform="matrix(-1.24970443 -.02718136 .02718136 -1.24970443 -1.63088163 149.98226607)" xlink:href="#A" y="60" class="B" fill="#000000"/>
    </g>
    <a xlink:href="#/test2">
        <g transform="matrix(0 -1 1 0 309.5 329.5)">
            <rect height="30" rx="5" width="65" fill="var(--r-diagram-fill-color)"/>
            <text class="B C F G H" white-space="pre" fill="#000000" stroke="none" font-weight="bold" font-family="arial" font-size="16px">
                <tspan x="32.5" y="20.94">TEST</tspan>
            </text>
            <rect height="30" rx="5" width="65" fill="var(--r-diagram-fill-color)" fill-opacity="0.0" onmouseover="evt.target.setAttribute('stroke-width', '3');" onmouseout="evt.target.setAttribute('stroke-width','1');"/>
        </g>
    </a>
    <a xlink:href="#/build2">
        <rect height="30" rx="5" width="100" x="149.5" y="389.5" fill="var(--r-diagram-fill-color)"/>
        <text class="B C F G H" white-space="pre" fill="#000000" stroke="none" font-weight="bold" font-family="arial" font-size="16px">
            <tspan x="199.5" y="410.44">BUILD</tspan>
        </text>
        <rect height="30" rx="5" width="100" x="149.5" y="389.5" fill="var(--r-diagram-fill-color)" fill-opacity="0.0" onmouseover="evt.target.setAttribute('stroke-width', '3');" onmouseout="evt.target.setAttribute('stroke-width','1');"/>
    </a>
    <g transform="matrix(-1 0 0 -1 404.5 444.5)">
        <path d="M155 0Q3.8411 0 .0951 109.3761" class="D E" stroke-width="2" fill="none"/>
        <use transform="matrix(-1.24977839 -.02353656 .02353656 -1.24977839 -2.16536312 229.97961212)" xlink:href="#A" y="92" class="B" fill="#000000"/>
    </g>
    <a xlink:href="#/build3">
        <rect height="30" rx="5" width="100" x="149.5" y="429.5" fill="var(--r-diagram-fill-color)"/>
        <text class="B C F G H" white-space="pre" fill="#000000" stroke="none" font-weight="bold" font-family="arial" font-size="16px">
            <tspan x="199.5" y="450.44">BUILD</tspan>
        </text>
        <rect height="30" rx="5" width="100" x="149.5" y="429.5" fill="var(--r-diagram-fill-color)" fill-opacity="0.0" onmouseover="evt.target.setAttribute('stroke-width', '3');" onmouseout="evt.target.setAttribute('stroke-width','1');"/>
    </a>
    <a xlink:href="#/test3">
        <g transform="matrix(0 -1 1 0 349.5 329.5)">
            <rect height="30" rx="5" width="65" fill="var(--r-diagram-fill-color)"/>
            <text class="B C F G H" white-space="pre" fill="#000000" stroke="none" font-weight="bold" font-family="arial" font-size="16px">
                <tspan x="32.5" y="20.94">TEST</tspan>
            </text>
            <rect height="30" rx="5" width="65" fill="var(--r-diagram-fill-color)" fill-opacity="0.0" onmouseover="evt.target.setAttribute('stroke-width', '3');" onmouseout="evt.target.setAttribute('stroke-width','1');"/>
        </g>
    </a>
    <g transform="translate(34.5 114.5)">
        <path d="M115 0Q2.8513 0 .0706 109.3756" class="D E" stroke-width="2" fill="none"/>
        <use transform="matrix(-1.24987797 -.01746581 .01746581 -1.24987797 -1.6068549 229.98877344)" xlink:href="#A" y="92" class="B" fill="#000000"/>
    </g>
    <a xlink:href="#/commit3">
        <g transform="matrix(0 -1 1 0 19.5 329.5)">
            <rect height="30" rx="5" width="100" fill="var(--r-diagram-fill-color)"/>
            <text class="B C F G H" white-space="pre" fill="#000000" stroke="none" font-weight="bold" font-family="arial" font-size="16px">
                <tspan x="50" y="20.94">COMMIT</tspan>
            </text>
            <rect height="30" rx="5" width="100" fill="var(--r-diagram-fill-color)" fill-opacity="0.0" onmouseover="evt.target.setAttribute('stroke-width', '3');" onmouseout="evt.target.setAttribute('stroke-width','1');"/>
        </g>
    </a>
    <a xlink:href="#/trunk">
        <rect height="30" rx="5" width="100" x="149.5" y="99.5" fill="var(--r-diagram-fill-color)"/>
        <text class="B C F G H" white-space="pre" fill="#000000" stroke="none" font-weight="bold" font-family="arial" font-size="16px">
            <tspan x="199.5" y="120.44">TRUNK</tspan>
        </text>
        <rect height="30" rx="5" width="100" x="149.5" y="99.5" fill="var(--r-diagram-fill-color)" fill-opacity="0.0" onmouseover="evt.target.setAttribute('stroke-width', '3');" onmouseout="evt.target.setAttribute('stroke-width','1');"/>
    </a>
    <g transform="matrix(0 -1 1 0 34.5 444.5)">
        <path d="M115 0Q2.8513 0 .0706 109.3756" class="D E" stroke-width="2" fill="none"/>
        <use transform="matrix(-1.24987797 -.01746581 .01746581 -1.24987797 -1.6068549 229.98877344)" xlink:href="#A" y="92" class="B" fill="#000000"/>
    </g>
    <g transform="matrix(0 1 -1 0 854.5 74.5)">
        <use xlink:href="#C" class="D E" stroke-width="2" fill="none"/>
        <use transform="matrix(.01288903 1.24993355 -1.24993355 .01288903 153.40176051 -154.99175988)" x="124" xlink:href="#A" class="B" fill="#000000"/>
    </g>
    <a xlink:href="#/release2">
        <g transform="matrix(0 -1 1 0 839.5 329.5)">
            <rect height="30" rx="10" width="100" fill="var(--r-diagram-fill-color)"/>
            <text class="B C F G H" white-space="pre" fill="#000000" stroke="none" font-weight="bold" font-family="arial" font-size="16px">
                <tspan x="50" y="20.94">RELEASE</tspan>
            </text>
            <rect height="30" rx="10" width="100" fill="var(--r-diagram-fill-color)" fill-opacity="0.0" onmouseover="evt.target.setAttribute('stroke-width', '3');" onmouseout="evt.target.setAttribute('stroke-width','1');"/>
        </g>
    </a>
    <a xlink:href="#/deploy1">
        <rect height="30" rx="10" width="150" x="549.5" y="19.5" fill="var(--r-diagram-fill-color)"/>
        <text class="B C F G H" white-space="pre" fill="#000000" stroke="none" font-weight="bold" font-family="arial" font-size="16px">
            <tspan x="624.5" y="40.44">DEPLOY - SBX</tspan>
        </text>
        <rect height="30" rx="10" width="150" x="549.5" y="19.5" fill="var(--r-diagram-fill-color)" fill-opacity="0.0" onmouseover="evt.target.setAttribute('stroke-width', '3');" onmouseout="evt.target.setAttribute('stroke-width','1');"/>
    </a>
    <g transform="matrix(-1 0 0 -1 854.5 484.5)">
        <use xlink:href="#C" class="D E" stroke-width="2" fill="none"/>
        <use transform="matrix(.01288903 1.24993355 -1.24993355 .01288903 153.40176051 -154.99175988)" x="124" xlink:href="#A" class="B" fill="#000000"/>
    </g>
    <a xlink:href="#/observe1">
        <rect height="30" rx="10" width="100" x="599.5" y="509.5" fill="var(--r-diagram-fill-color)"/>
        <text class="B C F G H" white-space="pre" fill="#000000" stroke="none" font-weight="bold" font-family="arial" font-size="16px">
            <tspan x="649.5" y="530.44">OBSERVE</tspan>
        </text>
        <rect height="30" rx="10" width="100" x="599.5" y="509.5" fill="var(--r-diagram-fill-color)" fill-opacity="0.0" onmouseover="evt.target.setAttribute('stroke-width', '3');" onmouseout="evt.target.setAttribute('stroke-width','1');"/>
    </a>
    <g transform="matrix(0 1 -1 0 774.5 154.5)">
        <use xlink:href="#E" class="D E" stroke-width="2" fill="none"/>
        <use transform="matrix(.02718136 1.24970443 -1.24970443 .02718136 73.36911837 -74.98226607)" x="60" xlink:href="#A" class="B" fill="#000000"/>
    </g>
    <a xlink:href="#/release5">
        <g transform="matrix(0 -1 1 0 719.5 329.5)">
            <rect height="30" rx="10" width="100" fill="var(--r-diagram-fill-color)"/>
            <text class="B C F G H" white-space="pre" fill="#000000" stroke="none" font-weight="bold" font-family="arial" font-size="16px">
                <tspan x="50" y="20.94">RELEASE</tspan>
            </text>
            <rect height="30" rx="10" width="100" fill="var(--r-diagram-fill-color)" fill-opacity="0.0" onmouseover="evt.target.setAttribute('stroke-width', '3');" onmouseout="evt.target.setAttribute('stroke-width','1');"/>
        </g>
    </a>
    <a xlink:href="#/release4">
        <g transform="matrix(0 -1 1 0 759.5 329.5)">
            <rect height="30" rx="10" width="100" fill="var(--r-diagram-fill-color)"/>
            <text class="B C F G H" white-space="pre" fill="#000000" stroke="none" font-weight="bold" font-family="arial" font-size="16px">
                <tspan x="50" y="20.94">RELEASE</tspan>
            </text>
            <rect height="30" rx="10" width="100" fill="var(--r-diagram-fill-color)" fill-opacity="0.0" onmouseover="evt.target.setAttribute('stroke-width', '3');" onmouseout="evt.target.setAttribute('stroke-width','1');"/>
        </g>
    </a>
    <a xlink:href="#/deploy3">
        <rect height="30" rx="10" width="150" x="549.5" y="99.5" fill="var(--r-diagram-fill-color)"/>
        <text class="B C F G H" white-space="pre" fill="#000000" stroke="none" font-weight="bold" font-family="arial" font-size="16px">
            <tspan x="624.5" y="120.44">DEPLOY - STG</tspan>
        </text>
        <rect height="30" rx="10" width="150" x="549.5" y="99.5" fill="var(--r-diagram-fill-color)" fill-opacity="0.0" onmouseover="evt.target.setAttribute('stroke-width', '3');" onmouseout="evt.target.setAttribute('stroke-width','1');"/>
    </a>
    <g transform="matrix(0 1 -1 0 734.5 194.5)">
        <use xlink:href="#F" class="D E" stroke-width="2" fill="none"/>
        <use transform="matrix(.06124089 1.24849892 -1.24849892 .06124089 33.28525496 -34.95796976)" x="28" xlink:href="#A" class="B" fill="#000000"/>
    </g>
    <g transform="matrix(-1 0 0 -1 774.5 404.5)">
        <use xlink:href="#E" class="D E" stroke-width="2" fill="none"/>
        <use transform="matrix(.02718136 1.24970443 -1.24970443 .02718136 73.36911837 -74.98226607)" x="60" xlink:href="#A" class="B" fill="#000000"/>
    </g>
    <a xlink:href="#/observe4">
        <rect height="30" rx="10" width="100" x="599.5" y="389.5" fill="var(--r-diagram-fill-color)"/>
        <text class="B C F G H" white-space="pre" fill="#000000" stroke="none" font-weight="bold" font-family="arial" font-size="16px">
            <tspan x="649.5" y="410.44">OBSERVE</tspan>
        </text>
        <rect height="30" rx="10" width="100" x="599.5" y="389.5" fill="var(--r-diagram-fill-color)" fill-opacity="0.0" onmouseover="evt.target.setAttribute('stroke-width', '3');" onmouseout="evt.target.setAttribute('stroke-width','1');"/>
    </a>
    <a xlink:href="#/observe3">
        <rect height="30" rx="10" width="100" x="599.5" y="429.5" fill="var(--r-diagram-fill-color)"/>
        <text class="B C F G H" white-space="pre" fill="#000000" stroke="none" font-weight="bold" font-family="arial" font-size="16px">
            <tspan x="649.5" y="450.44">OBSERVE</tspan>
        </text>
        <rect height="30" rx="10" width="100" x="599.5" y="429.5" fill="var(--r-diagram-fill-color)" fill-opacity="0.0" onmouseover="evt.target.setAttribute('stroke-width', '3');" onmouseout="evt.target.setAttribute('stroke-width','1');"/>
    </a>
    <g transform="matrix(-1 0 0 -1 734.5 364.5)">
        <use xlink:href="#F" class="D E" stroke-width="2" fill="none"/>
        <use transform="matrix(.06124089 1.24849892 -1.24849892 .06124089 33.28525496 -34.95796976)" x="28" xlink:href="#A" class="B" fill="#000000"/>
    </g>
    <g transform="matrix(0 -1 1 0 74.5 404.5)">
        <use xlink:href="#D" class="D E" stroke-width="2" fill="none"/>
        <use transform="matrix(-1.24970443 -.02718136 .02718136 -1.24970443 -1.63088163 149.98226607)" xlink:href="#A" y="60" class="B" fill="#000000"/>
    </g>
    <g transform="matrix(0 -1 1 0 524.5 404.5)">
        <use xlink:href="#E" class="D E" stroke-width="2" fill="none"/>
        <use transform="matrix(.02718136 1.24970443 -1.24970443 .02718136 73.36911837 -74.98226607)" x="60" xlink:href="#A" class="B" fill="#000000"/>
    </g>
    <a xlink:href="#/test7">
        <g transform="matrix(0 -1 1 0 509.5 329.5)">
            <rect height="30" rx="5" width="65" fill="var(--r-diagram-fill-color)"/>
            <text class="B C F G H" white-space="pre" fill="#000000" stroke="none" font-weight="bold" font-family="arial" font-size="16px">
                <tspan x="32.5" y="20.94">TEST</tspan>
            </text>
            <rect height="30" rx="5" width="65" fill="var(--r-diagram-fill-color)" fill-opacity="0.0" onmouseover="evt.target.setAttribute('stroke-width', '3');" onmouseout="evt.target.setAttribute('stroke-width','1');"/>
        </g>
    </a>
    <g transform="translate(444.5 114.5)">
        <path d="M99.376.0922Q0 3.396 0 125" class="D E" stroke-width="2" fill="none"/>
        <use transform="matrix(.02284509 1.24979122 -1.24979122 .02284509 103.08101261 -104.98246276)" x="84" xlink:href="#A" class="B" fill="#000000"/>
    </g>
    <a xlink:href="#/test5">
        <g transform="matrix(0 -1 1 0 429.5 329.5)">
            <rect height="30" rx="5" width="65" fill="var(--r-diagram-fill-color)"/>
            <text class="B C F G H" white-space="pre" fill="#000000" stroke="none" font-weight="bold" font-family="arial" font-size="16px">
                <tspan x="32.5" y="20.94">TEST</tspan>
            </text>
            <rect height="30" rx="5" width="65" fill="var(--r-diagram-fill-color)" fill-opacity="0.0" onmouseover="evt.target.setAttribute('stroke-width', '3');" onmouseout="evt.target.setAttribute('stroke-width','1');"/>
        </g>
    </a>
    <g transform="translate(404.5 74.5)">
        <path d="M139.3755.0633Q0 3.2318 0 165" class="D E" stroke-width="2" fill="none"/>
        <use transform="matrix(.01568137 1.24990163 -1.24990163 .01568137 143.18096085 -144.98858954)" x="116" xlink:href="#A" class="B" fill="#000000"/>
    </g>
    <a xlink:href="#/deploy2">
        <rect height="30" rx="10" width="150" x="549.5" y="59.5" fill="var(--r-diagram-fill-color)"/>
        <text class="B C F G H" white-space="pre" fill="#000000" stroke="none" font-weight="bold" font-family="arial" font-size="16px">
            <tspan x="624.5" y="80.44">DEPLOY - CI</tspan>
        </text>
        <rect height="30" rx="10" width="150" x="549.5" y="59.5" fill="var(--r-diagram-fill-color)" fill-opacity="0.0" onmouseover="evt.target.setAttribute('stroke-width', '3');" onmouseout="evt.target.setAttribute('stroke-width','1');"/>
    </a>
    <g transform="matrix(0 1 -1 0 284.5 154.5)">
        <path d="M85 0Q7.074 0 .5887 29.417" class="D E" stroke-width="2" fill="none"/>
        <use transform="matrix(-1.24137246 -.14660976 .14660976 -1.24137246 -4.10507329 69.75842881)" xlink:href="#A" y="28" class="B" fill="#000000"/>
    </g>
    <g transform="translate(189.5 209.5)">
        <path d="M0 30V5.625" class="D E" stroke-width="2" fill="none"/>
        <use transform="matrix(1.25 0 0 1.25 0 0)" xlink:href="#A" class="B" fill="#000000"/>
    </g>
    <g transform="matrix(0 1 -1 0 284.5 122)">
        <path d="M117.5 0Q9.7125 0 .8028 29.4532" class="D E" stroke-width="2" fill="none"/>
        <use transform="matrix(-1.23394788 -.19968135 .19968135 -1.23394788 -5.59107776 69.55054051)" xlink:href="#A" y="28" class="B" fill="#000000"/>
    </g>
    <g transform="translate(324.5 34.5)">
        <path d="M219.3751.0326Q0 2.5916 0 205" class="D E" stroke-width="2" fill="none"/>
        <use transform="matrix(.00804155 1.24997413 -1.24997413 .00804155 223.55252117 -224.99534396)" x="180" xlink:href="#A" class="B" fill="#000000"/>
    </g>
    <a xlink:href="#/test4">
        <g transform="matrix(0 -1 1 0 389.5 329.5)">
            <rect height="30" rx="5" width="65" fill="var(--r-diagram-fill-color)"/>
            <text class="B C F G H" white-space="pre" fill="#000000" stroke="none" font-weight="bold" font-family="arial" font-size="16px">
                <tspan x="32.5" y="20.94">TEST</tspan>
            </text>
            <rect height="30" rx="5" width="65" fill="var(--r-diagram-fill-color)" fill-opacity="0.0" onmouseover="evt.target.setAttribute('stroke-width', '3');" onmouseout="evt.target.setAttribute('stroke-width','1');"/>
        </g>
    </a>
    <g transform="matrix(0 1 -1 0 814.5 114.5)">
        <use xlink:href="#G" class="D E" stroke-width="2" fill="none"/>
        <use transform="matrix(.01746581 1.24987797 -1.24987797 .01746581 113.3931451 -114.98877344)" x="92" xlink:href="#A" class="B" fill="#000000"/>
    </g>
    <a xlink:href="#/deploy4">
        <rect height="30" rx="10" width="150" x="549.5" y="139.5" fill="var(--r-diagram-fill-color)"/>
        <text class="B C F G H" white-space="pre" fill="#000000" stroke="none" font-weight="bold" font-family="arial" font-size="16px">
            <tspan x="624.5" y="160.44">PRD - BLUE</tspan>
        </text>
        <rect height="30" rx="10" width="150" x="549.5" y="139.5" fill="var(--r-diagram-fill-color)" fill-opacity="0.0" onmouseover="evt.target.setAttribute('stroke-width', '3');" onmouseout="evt.target.setAttribute('stroke-width','1');"/>
    </a>
    <a xlink:href="#/release3">
        <g transform="matrix(0 -1 1 0 799.5 329.5)">
            <rect height="30" rx="10" width="100" fill="var(--r-diagram-fill-color)"/>
            <text class="B C F G H" white-space="pre" fill="#000000" stroke="none" font-weight="bold" font-family="arial" font-size="16px">
                <tspan x="50" y="20.94">RELEASE</tspan>
            </text>
            <rect height="30" rx="10" width="100" fill="var(--r-diagram-fill-color)" fill-opacity="0.0" onmouseover="evt.target.setAttribute('stroke-width', '3');" onmouseout="evt.target.setAttribute('stroke-width','1');"/>
        </g>
    </a>
    <g transform="matrix(-1 0 0 -1 814.5 444.5)">
        <use xlink:href="#G" class="D E" stroke-width="2" fill="none"/>
        <use transform="matrix(.01746581 1.24987797 -1.24987797 .01746581 113.3931451 -114.98877344)" x="92" xlink:href="#A" class="B" fill="#000000"/>
    </g>
    <a xlink:href="#/observe2">
        <rect height="30" rx="10" width="100" x="599.5" y="469.5" fill="var(--r-diagram-fill-color)"/>
        <text class="B C F G H" white-space="pre" fill="#000000" stroke="none" font-weight="bold" font-family="arial" font-size="16px">
            <tspan x="649.5" y="490.44">OBSERVE</tspan>
        </text>
        <rect height="30" rx="10" width="100" x="599.5" y="469.5" fill="var(--r-diagram-fill-color)" fill-opacity="0.0" onmouseover="evt.target.setAttribute('stroke-width', '3');" onmouseout="evt.target.setAttribute('stroke-width','1');"/>
    </a>
    <g transform="matrix(0 -1 1 0 484.5 444.5)">
        <use xlink:href="#G" class="D E" stroke-width="2" fill="none"/>
        <use transform="matrix(.01746581 1.24987797 -1.24987797 .01746581 113.3931451 -114.98877344)" x="92" xlink:href="#A" class="B" fill="#000000"/>
    </g>
    <a xlink:href="#/test6">
        <g transform="matrix(0 -1 1 0 469.5 329.5)">
            <rect height="30" rx="5" width="65" fill="var(--r-diagram-fill-color)"/>
            <text class="B C F G H" white-space="pre" fill="#000000" stroke="none" font-weight="bold" font-family="arial" font-size="16px">
                <tspan x="32.5" y="20.94">TEST</tspan>
            </text>
            <rect height="30" rx="5" width="65" fill="var(--r-diagram-fill-color)" fill-opacity="0.0" onmouseover="evt.target.setAttribute('stroke-width', '3');" onmouseout="evt.target.setAttribute('stroke-width','1');"/>
        </g>
    </a>
    <g transform="translate(484.5 154.5)">
        <path d="M59.3783.1663Q0 3.7606 0 85" class="D E" stroke-width="2" fill="none"/>
        <use transform="matrix(.04126081 1.24931883 -1.24931883 .04126081 62.85443769 -64.96457929)" x="52" xlink:href="#A" class="B" fill="#000000"/>
    </g>
    <a xlink:href="#/plan2">
        <rect height="90" rx="15" width="80" x="619.5" y="239.5" fill="var(--r-diagram-fill-color)"/>
        <text class="B C F G H" white-space="pre" fill="#000000" stroke="none" font-weight="bold" font-family="arial" font-size="16px">
            <tspan x="659.5" y="290.44">PLAN</tspan>
        </text>
        <rect height="90" rx="15" width="80" x="619.5" y="239.5" fill="var(--r-diagram-fill-color)" fill-opacity="0.0" onmouseover="evt.target.setAttribute('stroke-width', '3');" onmouseout="evt.target.setAttribute('stroke-width','1');"/>
    </a>
    <a xlink:href="#/plan1">
        <rect height="90" rx="15" width="80" x="149.5" y="239.5" fill="var(--r-diagram-fill-color)"/>
        <text class="B C F G H" white-space="pre" fill="#000000" stroke="none" font-weight="bold" font-family="arial" font-size="16px">
            <tspan x="189.5" y="290.44">PLAN</tspan>
        </text>
        <rect height="90" rx="15" width="80" x="149.5" y="239.5" fill="var(--r-diagram-fill-color)" fill-opacity="0.0" onmouseover="evt.target.setAttribute('stroke-width', '3');" onmouseout="evt.target.setAttribute('stroke-width','1');"/>
    </a>
    <a xlink:href="#/deploy5">
        <rect height="30" rx="10" width="150" x="549.5" y="179.5" fill="var(--r-diagram-fill-color)"/>
        <text class="B C F G H" white-space="pre" fill="#000000" stroke="none" font-weight="bold" font-family="arial" font-size="16px">
            <tspan x="624.5" y="200.44">PRD - GREEN</tspan>
        </text>
        <rect height="30" rx="10" width="150" x="549.5" y="179.5" fill="var(--r-diagram-fill-color)" fill-opacity="0.0" onmouseover="evt.target.setAttribute('stroke-width', '3');" onmouseout="evt.target.setAttribute('stroke-width','1');"/>
    </a>
    <a xlink:href="#/observe5">
        <rect height="30" rx="10" width="100" x="599.5" y="349.5" fill="var(--r-diagram-fill-color)"/>
        <text class="B C F G H" white-space="pre" fill="#000000" stroke="none" font-weight="bold" font-family="arial" font-size="16px">
            <tspan x="649.5" y="370.44">OBSERVE</tspan>
        </text>
        <rect height="30" rx="10" width="100" x="599.5" y="349.5" fill="var(--r-diagram-fill-color)" fill-opacity="0.0" onmouseover="evt.target.setAttribute('stroke-width', '3');" onmouseout="evt.target.setAttribute('stroke-width','1');"/>
    </a>
    <a xlink:href="#/release1">
        <g transform="matrix(0 -1 1 0 879.5 329.5)">
            <rect height="30" rx="10" width="100" fill="var(--r-diagram-fill-color)"/>
            <text class="B C F G H" white-space="pre" fill="#000000" stroke="none" font-weight="bold" font-family="arial" font-size="16px">
                <tspan x="50" y="20.94">RELEASE</tspan>
            </text>
            <rect height="30" rx="10" width="100" fill="var(--r-diagram-fill-color)" fill-opacity="0.0" onmouseover="evt.target.setAttribute('stroke-width', '3');" onmouseout="evt.target.setAttribute('stroke-width','1');"/>
        </g>
    </a>
    <g transform="matrix(0 1 -1 0 894.5 34.5)">
        <path d="M189.3752.0413Q0 2.8427 0 195" class="D E" stroke-width="2" fill="none"/>
        <use transform="matrix(.01020788 1.24995832 -1.24995832 .01020788 193.40757056 -194.99349776)" x="156" xlink:href="#A" class="B" fill="#000000"/>
    </g>
    <g transform="matrix(-1 0 0 -1 894.5 524.5)">
        <path d="M189.3752.0413Q0 2.8427 0 195" class="D E" stroke-width="2" fill="none"/>
        <use transform="matrix(.01020788 1.24995832 -1.24995832 .01020788 193.40757056 -194.99349776)" x="156" xlink:href="#A" class="B" fill="#000000"/>
    </g>
    <a xlink:href="#/test8">
        <g transform="matrix(0 -1 1 0 549.5 329.5)">
            <rect height="30" rx="5" width="65" fill="var(--r-diagram-fill-color)"/>
            <text class="B C F G H" white-space="pre" fill="#000000" stroke="none" font-weight="bold" font-family="arial" font-size="16px">
                <tspan x="32.5" y="20.94">TEST</tspan>
            </text>
            <rect height="30" rx="5" width="65" fill="var(--r-diagram-fill-color)" fill-opacity="0.0" onmouseover="evt.target.setAttribute('stroke-width', '3');" onmouseout="evt.target.setAttribute('stroke-width','1');"/>
        </g>
    </a>
    <a xlink:href="#/feedback">
        <rect height="30" rx="5" width="330" x="259.5" y="239.5" class="D I" stroke-width="2" stroke-dasharray="2 4" fill="var(--r-diagram-fill-color)"/>
        <text font-size="16" class="B C F G" white-space="pre" fill="#000000" stroke="none" font-weight="bold" font-family="arial">
            <tspan x="424.5" y="259.78">FEEDBACK</tspan>
        </text>
        <rect height="30" rx="5" width="330" x="259.5" y="239.5" class="D I" stroke-width="2" stroke-dasharray="2 4" fill="var(--r-diagram-fill-color)" fill-opacity="0.0" onmouseover="evt.target.setAttribute('stroke-width', '3');" onmouseout="evt.target.setAttribute('stroke-width','1');"/>
    </a>
    <g transform="translate(229.5 209.5)">
        <path d="M30 30L3.9775 3.9775" class="D E I" stroke-width="2" fill="none" stroke-dasharray="2 4"/>
        <use transform="matrix(.88388348 -.88388348 .88388348 .88388348 0 0)" xlink:href="#A" class="B" fill="#000000"/>
    </g>
    <g transform="translate(592 254.5)">
        <path d="M0 0h19.375" class="D E I" stroke-width="2" fill="none" stroke-dasharray="2 4"/>
        <use transform="matrix(0 1.25 -1.25 0 25 -25)" x="20" xlink:href="#A" class="B" fill="#000000"/>
    </g>
    <g transform="translate(524.5 194.5)">
        <path d="M19.424.6324Q0 5.3346 0 45" class="D E" stroke-width="2" fill="none"/>
        <use transform="matrix(.15821401 1.23994691 -1.23994691 .15821401 21.83571985 -24.79893811)" x="20" xlink:href="#A" class="B" fill="#000000"/>
    </g>
    <g transform="matrix(0 -1 1 0 564.5 364.5)">
        <use xlink:href="#F" class="D E" stroke-width="2" fill="none"/>
        <use transform="matrix(.06124089 1.24849892 -1.24849892 .06124089 33.28525496 -34.95796976)" x="28" xlink:href="#A" class="B" fill="#000000"/>
    </g>
</svg>